<?xml version="1.0" encoding="UTF-8"?>
<svg enable-background="new 0 0 60 60" version="1.1" viewBox="0 0 60 60" xml:space="preserve" xmlns="http://www.w3.org/2000/svg">
<style type="text/css">
	.st0{fill:none;}
	.st1{fill:url(#k);}
	.st2{fill:url(#h);}
	.st3{fill:url(#g);}
	.st4{fill:url(#f);}
	.st5{fill:url(#e);}
	.st6{fill:url(#d);}
	.st7{fill:url(#c);}
	.st8{fill:url(#b);}
	.st9{fill:url(#a);}
	.st10{fill:url(#u);}
	.st11{fill:url(#t);}
	.st12{fill:url(#s);}
	.st13{fill:url(#r);}
	.st14{fill:url(#q);}
	.st15{fill:url(#p);}
	.st16{fill:url(#o);}
	.st17{fill:url(#n);}
	.st18{fill:url(#m);}
	.st19{fill:url(#l);}
	.st20{fill:url(#j);}
	.st21{fill:url(#i);}
</style>

	<polygon class="st0" points="30.1 29.9 24.1 35.9 39 51 48.3 41.7 33.3 26.7"/>
	<polygon class="st0" points="59.9 60 60 60 60 59.9"/>
	<polygon class="st0" points="60 25.1 60 0 34.9 25.1"/>
	
		<linearGradient id="k" x1="-5.6376" x2="50.196" y1="37.317" y2="-18.516" gradientTransform="matrix(-1 0 0 -1 94.47 42.159)" gradientUnits="userSpaceOnUse">
		<stop stop-color="#F1EA00" offset=".1125"/>
		<stop stop-color="#EC5E58" offset=".8232"/>
	</linearGradient>
	<polygon class="st1" points="60 53.4 48.3 41.7 39 51 48 60 59.9 60 60 59.9"/>
	
		<linearGradient id="h" x1="2.4868" x2="30.834" y1="31.513" y2="3.1657" gradientTransform="translate(0 41)" gradientUnits="userSpaceOnUse">
		<stop stop-color="#00DADA" offset=".303"/>
		<stop stop-color="#DD4F92" offset="1"/>
	</linearGradient>
	<polygon class="st2" points="24.1 35.9 0 60 30 60 39 51"/>
	
		<linearGradient id="g" x1="-2.6697" x2="53.164" y1="40.285" y2="-15.548" gradientTransform="matrix(-1 0 0 -1 94.47 42.159)" gradientUnits="userSpaceOnUse">
		<stop stop-color="#F1EA00" offset=".1125"/>
		<stop stop-color="#EC5E58" offset=".8232"/>
	</linearGradient>
	<polygon class="st3" points="30 60 48 60 39 51"/>
	
		<linearGradient id="f" x1="14.494" x2="42.841" y1="43.52" y2="15.173" gradientTransform="translate(0 41)" gradientUnits="userSpaceOnUse">
		<stop stop-color="#00DADA" offset=".303"/>
		<stop stop-color="#DD4F92" offset="1"/>
	</linearGradient>
	<polygon class="st4" points="30 60 48 60 39 51"/>
	
		<linearGradient id="e" x1="45.105" x2="100.94" y1="26.221" y2="-29.613" gradientTransform="matrix(-6.1232e-17 1 -1 -6.1232e-17 62.363 -29.682)" gradientUnits="userSpaceOnUse">
		<stop stop-color="#F1EA00" offset=".1125"/>
		<stop stop-color="#EC5E58" offset=".8232"/>
	</linearGradient>
	<polygon class="st5" points="33.3 26.7 48.3 41.7 59.9 30.1 60 30 60 25.1 34.9 25.1"/>
	
		<linearGradient id="d" x1="-4.02" x2="51.813" y1="38.934" y2="-16.899" gradientTransform="matrix(-1 0 0 -1 94.47 42.159)" gradientUnits="userSpaceOnUse">
		<stop stop-color="#F1EA00" offset=".1125"/>
		<stop stop-color="#EC5E58" offset=".8232"/>
	</linearGradient>
	<polygon class="st6" points="48.3 41.7 60 53.4 60 30 59.9 30.1"/>
	
		<linearGradient id="c" x1="46.322" x2="102.16" y1="27.438" y2="-28.395" gradientTransform="matrix(-6.1232e-17 1 -1 -6.1232e-17 62.363 -29.682)" gradientUnits="userSpaceOnUse">
		<stop stop-color="#F1EA00" offset=".1125"/>
		<stop stop-color="#EC5E58" offset=".8232"/>
	</linearGradient>
	<polygon class="st7" points="48.3 41.7 60 53.4 60 30 59.9 30.1"/>
	
		<linearGradient id="b" x1="-3.8525" x2="21.352" y1="-21.298" y2="-46.501" gradientTransform="translate(0 41)" gradientUnits="userSpaceOnUse">
		<stop stop-color="#00DADA" offset=".037408"/>
		<stop stop-color="#DD4F92" offset="1"/>
	</linearGradient>
	<polygon class="st8" points="0 0 0 31.7 30.1 0"/>
	
		<linearGradient id="a" x1="4.0001" x2="20.464" y1="-29.15" y2="-45.614" gradientTransform="translate(0 41)" gradientUnits="userSpaceOnUse">
		<stop stop-color="#0095D5" offset=".1183"/>
		<stop stop-color="#3C83DC" offset=".4178"/>
		<stop stop-color="#6D74E1" offset=".6962"/>
		<stop stop-color="#806EE3" offset=".8333"/>
	</linearGradient>
	<polygon class="st9" points="0 0 0 31.7 30.1 0"/>
	
		<linearGradient id="u" x1="-10.108" x2="45.725" y1="14.158" y2="-41.676" gradientTransform="translate(0 41)" gradientUnits="userSpaceOnUse">
		<stop stop-color="#F1EA00" offset=".1125"/>
		<stop stop-color="#EC5E58" offset=".8232"/>
	</linearGradient>
	<polygon class="st10" points="24.1 35.9 30.1 29.9 33.3 26.7 31.7 25.1 34.9 25.1 60 0 30.1 0 0 32.5 0 48 18.1 29.9"/>
	
		<linearGradient id="t" x1="-10.108" x2="45.725" y1="14.158" y2="-41.676" gradientTransform="translate(0 41)" gradientUnits="userSpaceOnUse">
		<stop stop-color="#C757BC" offset=".1075"/>
		<stop stop-color="#D0609A" offset=".2138"/>
		<stop stop-color="#E1725C" offset=".4254"/>
		<stop stop-color="#EE7E2F" offset=".6048"/>
		<stop stop-color="#F58613" offset=".743"/>
		<stop stop-color="#F88909" offset=".8232"/>
	</linearGradient>
	<polygon class="st11" points="24.1 35.9 30.1 29.9 33.3 26.7 31.7 25.1 34.9 25.1 60 0 30.1 0 0 32.5 0 48 18.1 29.9"/>
	
		<linearGradient id="s" x1="-5.6256" x2="50.208" y1="18.64" y2="-37.193" gradientTransform="translate(0 41)" gradientUnits="userSpaceOnUse">
		<stop stop-color="#F1EA00" offset=".1125"/>
		<stop stop-color="#EC5E58" offset=".8232"/>
	</linearGradient>
	<polygon class="st12" points="18.1 29.9 0 48 0 60 24.1 35.9"/>
	
		<linearGradient id="r" x1="-8.006" x2="20.341" y1="21.02" y2="-7.3271" gradientTransform="translate(0 41)" gradientUnits="userSpaceOnUse">
		<stop stop-color="#00DADA" offset=".303"/>
		<stop stop-color="#DD4F92" offset="1"/>
	</linearGradient>
	<polygon class="st13" points="18.1 29.9 0 48 0 60 24.1 35.9"/>
	
		<linearGradient id="q" x1="-5.6256" x2="50.208" y1="18.64" y2="-37.193" gradientTransform="translate(0 41)" gradientUnits="userSpaceOnUse">
		<stop stop-color="#C757BC" offset=".1075"/>
		<stop stop-color="#D0609A" offset=".2138"/>
		<stop stop-color="#E1725C" offset=".4254"/>
		<stop stop-color="#EE7E2F" offset=".6048"/>
		<stop stop-color="#F58613" offset=".743"/>
		<stop stop-color="#F88909" offset=".8232"/>
	</linearGradient>
	<polygon class="st14" points="18.1 29.9 0 48 0 60 24.1 35.9"/>
	
		<linearGradient id="p" x1="-3.425" x2="52.408" y1="20.84" y2="-34.993" gradientTransform="translate(0 41)" gradientUnits="userSpaceOnUse">
		<stop stop-color="#F1EA00" offset=".1125"/>
		<stop stop-color="#EC5E58" offset=".8232"/>
	</linearGradient>
	<polygon class="st15" points="31.7 25.1 33.3 26.7 34.9 25.1"/>
	
		<linearGradient id="o" x1="51.387" x2="107.22" y1="32.503" y2="-23.33" gradientTransform="matrix(-6.1232e-17 1 -1 -6.1232e-17 62.363 -29.682)" gradientUnits="userSpaceOnUse">
		<stop stop-color="#F1EA00" offset=".1125"/>
		<stop stop-color="#EC5E58" offset=".8232"/>
	</linearGradient>
	<polygon class="st16" points="31.7 25.1 33.3 26.7 34.9 25.1"/>
	
		<linearGradient id="n" x1="-3.425" x2="52.408" y1="20.84" y2="-34.993" gradientTransform="translate(0 41)" gradientUnits="userSpaceOnUse">
		<stop stop-color="#C757BC" offset=".1075"/>
		<stop stop-color="#D0609A" offset=".2138"/>
		<stop stop-color="#E1725C" offset=".4254"/>
		<stop stop-color="#EE7E2F" offset=".6048"/>
		<stop stop-color="#F58613" offset=".743"/>
		<stop stop-color="#F88909" offset=".8232"/>
	</linearGradient>
	<polygon class="st17" points="31.7 25.1 33.3 26.7 34.9 25.1"/>
	
		<linearGradient id="m" x1="3.8724" x2="29.076" y1="-13.572" y2="-38.776" gradientTransform="translate(0 41)" gradientUnits="userSpaceOnUse">
		<stop stop-color="#00DADA" offset=".037408"/>
		<stop stop-color="#DD4F92" offset="1"/>
	</linearGradient>
	<polygon class="st18" points="0 31.7 0 32.5 30.1 0"/>
	
		<linearGradient id="l" x1="-16.983" x2="38.85" y1="7.2827" y2="-48.55" gradientTransform="translate(0 41)" gradientUnits="userSpaceOnUse">
		<stop stop-color="#F1EA00" offset=".1125"/>
		<stop stop-color="#EC5E58" offset=".8232"/>
	</linearGradient>
	<polygon class="st19" points="0 31.7 0 32.5 30.1 0"/>
	
		<linearGradient id="j" x1="11.725" x2="28.189" y1="-21.425" y2="-37.889" gradientTransform="translate(0 41)" gradientUnits="userSpaceOnUse">
		<stop stop-color="#0095D5" offset=".1183"/>
		<stop stop-color="#3C83DC" offset=".4178"/>
		<stop stop-color="#6D74E1" offset=".6962"/>
		<stop stop-color="#806EE3" offset=".8333"/>
	</linearGradient>
	<polygon class="st20" points="0 31.7 0 32.5 30.1 0"/>
	
		<linearGradient id="i" x1="-16.983" x2="38.85" y1="7.2827" y2="-48.55" gradientTransform="translate(0 41)" gradientUnits="userSpaceOnUse">
		<stop stop-color="#C757BC" offset=".1075"/>
		<stop stop-color="#D0609A" offset=".2138"/>
		<stop stop-color="#E1725C" offset=".4254"/>
		<stop stop-color="#EE7E2F" offset=".6048"/>
		<stop stop-color="#F58613" offset=".743"/>
		<stop stop-color="#F88909" offset=".8232"/>
	</linearGradient>
	<polygon class="st21" points="0 31.7 0 32.5 30.1 0"/>

</svg>
